<svg xmlns="http://www.w3.org/2000/svg" xmlns:xlink="http://www.w3.org/1999/xlink" viewBox="0 0 430 430" width="430" height="430" preserveAspectRatio="xMidYMid meet" style="width: 100%; height: 100%; transform: translate3d(0px, 0px, 0px); content-visibility: visible;"><defs><clipPath id="__lottie_element_179"><rect width="430" height="430" x="0" y="0"/></clipPath><clipPath id="__lottie_element_181"><path d="M0,0 L430,0 L430,430 L0,430z"/></clipPath></defs><g clip-path="url(#__lottie_element_179)"><g clip-path="url(#__lottie_element_181)" transform="matrix(1,0,0,1,0,0)" opacity="1" style="display: block;"><g transform="matrix(1,0,0,1,185,347.5)" opacity="1" style="display: block;"><g opacity="1" transform="matrix(1,0,0,1,0,0)"><path stroke-linecap="round" stroke-linejoin="round" fill-opacity="0" class="secondary" stroke="rgb(21,98,198)" stroke-opacity="1" stroke-width="12" d=" M-90,-17.5 C-90,-17.5 -90,17.5 -90,17.5 C-90,17.5 90,17.5 90,17.5 C90,17.5 90,-17.5 90,-17.5 M30,-17.5 C30,-17.5 30,17.5 30,17.5 M-30,-17.5 C-30,-17.5 -30,17.5 -30,17.5"/></g></g><g transform="matrix(1,0,0,1,222.5,210)" opacity="1" style="display: block;"><g opacity="1" transform="matrix(1,0,0,1,0,0)"><path stroke-linecap="round" stroke-linejoin="round" fill-opacity="0" class="primary" stroke="rgb(21,98,198)" stroke-opacity="1" stroke-width="12" d=" M-177.5,120 C-177.5,120 157.5,120 157.5,120 C168.54600524902344,120 177.5,111.0459976196289 177.5,100 C177.5,100 177.5,-100 177.5,-100 C177.5,-111.0459976196289 168.54600524902344,-120 157.5,-120 C157.5,-120 -177.5,-120 -177.5,-120"/></g></g><g transform="matrix(1,0,0,1,280,210)" opacity="1" style="display: block;"><g opacity="1" transform="matrix(1,0,0,1,0,0)"><path stroke-linecap="round" stroke-linejoin="round" fill-opacity="0" class="primary" stroke="rgb(21,98,198)" stroke-opacity="1" stroke-width="12" d=" M22.972000122070312,0.10000000149011612 C42.24800109863281,5.5929999351501465 63.12300109863281,-7.690999984741211 72.41100311279297,-33.858001708984375 M-22.969999313354492,0 C-42.24599838256836,-5.493000030517578 -63.119998931884766,7.790999889373779 -72.40799713134766,33.95800018310547 M50.9370002746582,61.42300033569336 C20.575000762939453,61.42300033569336 -0.19900000095367432,44.34400177001953 -0.19900000095367432,23.070999145507812 M-51.334999084472656,-61.323001861572266 C-20.972999572753906,-61.323001861572266 -0.19900000095367432,-44.24399948120117 -0.19900000095367432,-22.97100067138672 M80,0 C80,44.18299865722656 44.18299865722656,80 0,80 C-44.18299865722656,80 -80,44.18299865722656 -80,0 C-80,-44.18299865722656 -44.18299865722656,-80 0,-80 C44.18299865722656,-80 80,-44.18299865722656 80,0z"/></g></g><g transform="matrix(1,0,0,1,280.0010070800781,210)" opacity="1" style="display: block;"><g opacity="1" transform="matrix(1,0,0,1,0,0)"><path stroke-linecap="round" stroke-linejoin="round" fill-opacity="0" class="secondary" stroke="rgb(21,98,198)" stroke-opacity="1" stroke-width="12" d=" M0,22.97100067138672 C12.687000274658203,22.97100067138672 22.97100067138672,12.687000274658203 22.97100067138672,0 C22.97100067138672,-12.687000274658203 12.687000274658203,-22.97100067138672 0,-22.97100067138672 C-12.687000274658203,-22.97100067138672 -22.97100067138672,-12.687000274658203 -22.97100067138672,0 C-22.97100067138672,12.687000274658203 -12.687000274658203,22.97100067138672 0,22.97100067138672z"/></g></g><g transform="matrix(1,0,0,1,122.5,210)" opacity="1" style="display: block;"><g opacity="1" transform="matrix(1,0,0,1,0,0)"><path stroke-linecap="round" stroke-linejoin="round" fill-opacity="0" class="secondary" stroke="rgb(21,98,198)" stroke-opacity="1" stroke-width="12" d=" M37.5,40 C37.5,40 -37.5,40 -37.5,40 M37.5,0 C37.5,0 -37.5,0 -37.5,0 M37.5,-40 C37.5,-40 -37.5,-40 -37.5,-40"/></g></g><g transform="matrix(1,0,0,1,30,210)" opacity="1" style="display: block;"><g opacity="1" transform="matrix(1,0,0,1,0,0)"><path stroke-linecap="round" stroke-linejoin="round" fill-opacity="0" class="primary" stroke="rgb(21,98,198)" stroke-opacity="1" stroke-width="12" d=" M-15,-155 C-15,-155 15,-155 15,-155 C15,-155 15,155 15,155"/></g></g></g></g></svg>