<svg xmlns="http://www.w3.org/2000/svg" xmlns:xlink="http://www.w3.org/1999/xlink" viewBox="0 0 430 430" width="430" height="430" preserveAspectRatio="xMidYMid meet" style="width: 100%; height: 100%; transform: translate3d(0px, 0px, 0px); content-visibility: visible;"><defs><clipPath id="__lottie_element_2"><rect width="430" height="430" x="0" y="0"/></clipPath><clipPath id="__lottie_element_4"><path d="M0,0 L430,0 L430,430 L0,430z"/></clipPath></defs><g clip-path="url(#__lottie_element_2)"><g clip-path="url(#__lottie_element_4)" transform="matrix(1,0,0,1,0,0)" opacity="1" style="display: block;"><g transform="matrix(1,0,0,1,-35,-35)" opacity="1" style="display: block;"><g opacity="1" transform="matrix(1,0,0,1,110.89299774169922,225.8090057373047)"><path stroke-linecap="round" stroke-linejoin="round" fill-opacity="0" class="secondary" stroke="rgb(21,98,198)" stroke-opacity="1" stroke-width="12" d=" M163.27099609375,184.30999755859375 C163.27099609375,184.30999755859375 163.27099609375,141.20700073242188 163.27099609375,141.20700073242188 M66.50700378417969,184.30999755859375 C66.50700378417969,184.30999755859375 66.50700378417969,141.20700073242188 66.50700378417969,141.20700073242188 M211.6540069580078,-135.92799377441406 C211.6540069580078,-135.92799377441406 211.6540069580078,-92.82499694824219 211.6540069580078,-92.82499694824219 M163.27099609375,-135.92799377441406 C163.27099609375,-135.92799377441406 163.27099609375,-92.82499694824219 163.27099609375,-92.82499694824219 M66.50700378417969,-135.92799377441406 C66.50700378417969,-135.92799377441406 66.50700378417969,-92.82499694824219 66.50700378417969,-92.82499694824219 M114.88899993896484,-135.92799377441406 C114.88899993896484,-135.92799377441406 114.88899993896484,-92.82499694824219 114.88899993896484,-92.82499694824219 M211.6540069580078,184.30999755859375 C211.6540069580078,184.30999755859375 211.6540069580078,141.20700073242188 211.6540069580078,141.20700073242188 M114.88899993896484,184.30999755859375 C114.88899993896484,184.30999755859375 114.88899993896484,141.20700073242188 114.88899993896484,141.20700073242188 M300.4440002441406,96.76399993896484 C300.4440002441406,96.76399993896484 257.34100341796875,96.76399993896484 257.34100341796875,96.76399993896484 M300.4440002441406,48.38199996948242 C300.4440002441406,48.38199996948242 257.34100341796875,48.38199996948242 257.34100341796875,48.38199996948242 M300.4440002441406,-48.38199996948242 C300.4440002441406,-48.38199996948242 257.34100341796875,-48.38199996948242 257.34100341796875,-48.38199996948242 M300.4440002441406,0 C300.4440002441406,0 257.34100341796875,0 257.34100341796875,0 M-21.552000045776367,96.76399993896484 C-21.552000045776367,96.76399993896484 21.552000045776367,96.76399993896484 21.552000045776367,96.76399993896484 M-21.552000045776367,48.38199996948242 C-21.552000045776367,48.38199996948242 21.552000045776367,48.38199996948242 21.552000045776367,48.38199996948242 M-21.552000045776367,-48.38199996948242 C-21.552000045776367,-48.38199996948242 21.552000045776367,-48.38199996948242 21.552000045776367,-48.38199996948242 M-21.552000045776367,0 C-21.552000045776367,0 21.552000045776367,0 21.552000045776367,0"/></g></g><g transform="matrix(1,0,0,1,236.63999938964844,266.77099609375)" opacity="1" style="display: block;"><g opacity="1" transform="matrix(1,0,0,1,0,0)"><path stroke-linecap="round" stroke-linejoin="round" fill-opacity="0" class="secondary" stroke="rgb(21,98,198)" stroke-opacity="1" stroke-width="12" d=" M51.63999938964844,65.41200256347656 C51.63999938964844,65.41200256347656 50.95800018310547,-23.576000213623047 50.95800018310547,-23.576000213623047 C50.95800018310547,-23.576000213623047 11.586999893188477,-23.576000213623047 11.586999893188477,-23.576000213623047 C11.586999893188477,-23.576000213623047 -51.63999938964844,-65.41200256347656 -51.63999938964844,-65.41200256347656"/></g></g><g transform="matrix(1,0,0,1,214.9739990234375,215)" opacity="1" style="display: block;"><g opacity="1" transform="matrix(1,0,0,1,0,0)"><path stroke-linecap="round" stroke-linejoin="round" fill-opacity="0" class="primary" stroke="rgb(21,98,198)" stroke-opacity="1" stroke-width="12" d=" M93.76399993896484,117.01599884033203 C93.76399993896484,117.01599884033203 -93.76399993896484,117.01599884033203 -93.76399993896484,117.01599884033203 C-106.60600280761719,117.01599884033203 -117.01599884033203,106.60600280761719 -117.01599884033203,93.76399993896484 C-117.01599884033203,93.76399993896484 -117.01599884033203,-93.76399993896484 -117.01599884033203,-93.76399993896484 C-117.01599884033203,-106.60600280761719 -106.60600280761719,-117.01599884033203 -93.76399993896484,-117.01599884033203 C-93.76399993896484,-117.01599884033203 93.76399993896484,-117.01599884033203 93.76399993896484,-117.01599884033203 C106.60600280761719,-117.01599884033203 117.01599884033203,-106.60600280761719 117.01599884033203,-93.76399993896484 C117.01599884033203,-93.76399993896484 117.01599884033203,93.76399993896484 117.01599884033203,93.76399993896484 C117.01599884033203,106.60600280761719 106.60600280761719,117.01599884033203 93.76399993896484,117.01599884033203z"/></g></g><g transform="matrix(1,0,0,1,157.33900451660156,260.7130126953125)" opacity="1" style="display: block;"><g opacity="1" transform="matrix(1,0,0,1,0,0)"><path stroke-linecap="round" stroke-linejoin="round" fill-opacity="0" class="primary" stroke="rgb(21,98,198)" stroke-opacity="1" stroke-width="12" d=" M172.72900390625,-69.5 C172.72900390625,-69.5 107.27100372314453,-69.5 107.27100372314453,-69.5 C107.27100372314453,-69.5 107.22799682617188,-117.28299713134766 107.22799682617188,-117.28299713134766 M17.14900016784668,-117.75 C17.14900016784668,-117.75 -57.64899826049805,-117.75 -57.64899826049805,-117.75 M-59.38100051879883,-20.917999267578125 C-59.38100051879883,-20.917999267578125 -3.8459999561309814,-20.917999267578125 -3.8459999561309814,-20.917999267578125 C-3.8459999561309814,-20.917999267578125 59.38100051879883,20.917999267578125 59.38100051879883,20.917999267578125"/></g></g><g transform="matrix(1,0,0,1,264.5780029296875,142.77099609375)" opacity="1" style="display: block;"><g opacity="1" transform="matrix(1,0,0,1,0,0)"><path stroke-linecap="round" stroke-linejoin="round" fill-opacity="0" class="primary" stroke="rgb(21,98,198)" stroke-opacity="1" stroke-width="22" d=" M-0.21299999952316284,0 C-0.07100000232458115,0 0.07100000232458115,0 0.21299999952316284,0"/></g></g><g transform="matrix(1,0,0,1,186.07699584960938,200.28199768066406)" opacity="1" style="display: block;"><g opacity="1" transform="matrix(1,0,0,1,0,0)"><path stroke-linecap="round" stroke-linejoin="round" fill-opacity="0" class="secondary" stroke="rgb(21,98,198)" stroke-opacity="1" stroke-width="22" d=" M-0.21299999952316284,0 C-0.07100000232458115,0 0.07100000232458115,0 0.21299999952316284,0"/></g></g><g transform="matrix(1,0,0,1,216.05999755859375,281.6310119628906)" opacity="1" style="display: block;"><g opacity="1" transform="matrix(1,0,0,1,0,0)"><path stroke-linecap="round" stroke-linejoin="round" fill-opacity="0" class="primary" stroke="rgb(21,98,198)" stroke-opacity="1" stroke-width="22" d=" M-0.21299999952316284,0 C-0.07100000232458115,0 0.07100000232458115,0 0.21299999952316284,0"/></g></g><g transform="matrix(1,0,0,1,174.95700073242188,142.77099609375)" opacity="1" style="display: block;"><g opacity="1" transform="matrix(1,0,0,1,0,0)"><path stroke-linecap="round" stroke-linejoin="round" fill-opacity="0" class="primary" stroke="rgb(21,98,198)" stroke-opacity="1" stroke-width="22" d=" M-0.21299999952316284,0 C-0.07100000232458115,0 0.07100000232458115,0 0.21299999952316284,0"/></g></g></g></g></svg>